<!-- <svg width="20" height="20" viewBox="0 0 20 20" fill="none" xmlns="http://www.w3.org/2000/svg">
<g clip-path="url(#clip0_92_401)">
<path d="M5.00006 8.33341H7.50006M5.63339 18.3334H14.3667C16.6667 18.3334 17.5834 16.9251 17.6917 15.2084L18.1251 8.32508C18.1751 7.55008 17.9334 6.82508 17.5084 6.25841M15.0001 5.00008C14.4917 5.00008 14.0251 4.70841 13.7917 4.25841L13.1917 3.05008C12.8084 2.29175 11.8084 1.66675 10.9584 1.66675H9.05006C8.19172 1.66675 7.19172 2.29175 6.80839 3.05008L6.20839 4.25841C5.97506 4.70841 5.50839 5.00008 5.00006 5.00008C3.19172 5.00008 1.75839 6.52508 1.87506 8.32508L2.30839 15.2084C2.35006 15.8917 2.52506 16.5334 2.86672 17.0501" stroke="#4B360C" stroke-width="1.5" stroke-linecap="round" stroke-linejoin="round"/>
<path d="M8.33341 14.4251C8.79175 14.7834 9.37508 15.0001 10.0001 15.0001C11.4917 15.0001 12.7084 13.7834 12.7084 12.2917C12.7084 11.7584 12.5584 11.2667 12.2917 10.8501M18.3334 1.66675L1.66675 18.3334" stroke="#4B360C" stroke-width="1.5" stroke-linecap="round" stroke-linejoin="round"/>
</g>
<defs>
<clipPath id="clip0_92_401">
<rect width="20" height="20" fill="white"/>
</clipPath>
</defs>
</svg> -->
<svg width="24" height="24" viewBox="0 0 24 24" fill="none" xmlns="http://www.w3.org/2000/svg">
<path d="M6.00017 10H9.00017M6.76017 22H17.2402C20.0002 22 21.1002 20.31 21.2302 18.25L21.7502 9.99C21.8102 9.06 21.5202 8.19 21.0102 7.51M18.0002 6C17.3902 6 16.8302 5.65 16.5502 5.11L15.8302 3.66C15.3702 2.75 14.1702 2 13.1502 2H10.8602C9.83017 2 8.63017 2.75 8.17017 3.66L7.45017 5.11C7.17017 5.65 6.61017 6 6.00017 6C3.83017 6 2.11017 7.83 2.25017 9.99L2.77017 18.25C2.82017 19.07 3.03017 19.84 3.44017 20.46" stroke="#B0ADAB" stroke-width="1.5" stroke-linecap="round" stroke-linejoin="round"/>
<path d="M10 17.31C10.55 17.74 11.25 18 12 18C13.79 18 15.25 16.54 15.25 14.75C15.25 14.11 15.07 13.52 14.75 13.02M22 2L2 22" stroke="#B0ADAB" stroke-width="1.5" stroke-linecap="round" stroke-linejoin="round"/>
</svg>
