<!-- <svg width="24" height="24" viewBox="0 0 24 24" fill="none" xmlns="http://www.w3.org/2000/svg">
<path d="M10.5 8H13.5M6.76005 22H17.24C20 22 21.1 20.31 21.23 18.25L21.75 9.99C21.7825 9.47783 21.7095 8.96446 21.5356 8.48161C21.3618 7.99876 21.0907 7.5567 20.7393 7.18275C20.3878 6.80879 19.9634 6.51089 19.4923 6.30746C19.0211 6.10403 18.5132 5.99939 18 6C17.39 6 16.83 5.65 16.55 5.11L15.83 3.66C15.37 2.75 14.17 2 13.15 2H10.86C9.83005 2 8.63005 2.75 8.17005 3.66L7.45005 5.11C7.17005 5.65 6.61005 6 6.00005 6C3.83005 6 2.11005 7.83 2.25005 9.99L2.77005 18.25C2.89005 20.31 4.00005 22 6.76005 22Z" stroke="white" stroke-width="1.5" stroke-linecap="round" stroke-linejoin="round"/>
<path d="M12 18C13.79 18 15.25 16.54 15.25 14.75C15.25 12.96 13.79 11.5 12 11.5C10.21 11.5 8.75 12.96 8.75 14.75C8.75 16.54 10.21 18 12 18Z" stroke="white" stroke-width="1.5" stroke-linecap="round" stroke-linejoin="round"/>
</svg> -->


<svg width="24" height="24" viewBox="0 0 24 24" fill="none" xmlns="http://www.w3.org/2000/svg">
<path d="M6.00017 10H9.00017M6.76017 22H17.2402C20.0002 22 21.1002 20.31 21.2302 18.25L21.7502 9.99C21.8102 9.06 21.5202 8.19 21.0102 7.51M18.0002 6C17.3902 6 16.8302 5.65 16.5502 5.11L15.8302 3.66C15.3702 2.75 14.1702 2 13.1502 2H10.8602C9.83017 2 8.63017 2.75 8.17017 3.66L7.45017 5.11C7.17017 5.65 6.61017 6 6.00017 6C3.83017 6 2.11017 7.83 2.25017 9.99L2.77017 18.25C2.82017 19.07 3.03017 19.84 3.44017 20.46" stroke="#B0ADAB" stroke-width="1.5" stroke-linecap="round" stroke-linejoin="round"/>
<path d="M10 17.31C10.55 17.74 11.25 18 12 18C13.79 18 15.25 16.54 15.25 14.75C15.25 14.11 15.07 13.52 14.75 13.02M22 2L2 22" stroke="#B0ADAB" stroke-width="1.5" stroke-linecap="round" stroke-linejoin="round"/>
</svg>