<svg width="24" height="24" viewBox="0 0 24 24" fill="none" xmlns="http://www.w3.org/2000/svg">
<path d="M16.41 4.00023C18.35 4.00023 19.91 5.57023 19.91 7.50023C19.91 9.39023 18.41 10.9302 16.54 11.0002C16.4536 10.9902 16.3664 10.9902 16.28 11.0002M18.34 20.0002C19.06 19.8502 19.74 19.5602 20.3 19.1302C21.86 17.9602 21.86 16.0302 20.3 14.8602C19.75 14.4402 19.08 14.1602 18.37 14.0002M9.15997 10.8702C9.05997 10.8602 8.93997 10.8602 8.82997 10.8702C7.68217 10.8313 6.59461 10.3471 5.7976 9.52019C5.00059 8.69332 4.55671 7.58869 4.55997 6.44023C4.55997 3.99023 6.53997 2.00023 8.99997 2.00023C10.1762 1.97902 11.3127 2.42593 12.1594 3.24265C13.0061 4.05937 13.4938 5.179 13.515 6.35523C13.5362 7.53147 13.0893 8.66796 12.2726 9.51468C11.4558 10.3614 10.3362 10.849 9.15997 10.8702ZM4.15997 14.5602C1.73997 16.1802 1.73997 18.8202 4.15997 20.4302C6.90997 22.2702 11.42 22.2702 14.17 20.4302C16.59 18.8102 16.59 16.1702 14.17 14.5602C11.43 12.7302 6.91997 12.7302 4.15997 14.5602Z" stroke="white" stroke-width="1.5" stroke-linecap="round" stroke-linejoin="round"/>
</svg>
